<?xml version="1.0" standalone="no"?>
<!DOCTYPE svg PUBLIC "-//W3C//DTD SVG 20010904//EN"
 "http://www.w3.org/TR/2001/REC-SVG-20010904/DTD/svg10.dtd">
<svg version="1.0" xmlns="http://www.w3.org/2000/svg"
 width="682.000000pt" height="614.000000pt" viewBox="0 0 1880.000000 1880.000000"
 preserveAspectRatio="xMidYMid meet">

<g transform="translate(0.000000,1880.000000) scale(0.100000,-0.100000)" fill="#e9e9e6" stroke="none">
<path d="M11616 18726 c-20 -41 -44 -97 -54 -126 l-17 -52 -225 -2 -225 -1 -3
-30 c-7 -55 18 -142 83 -291 36 -82 65 -156 65 -164 0 -12 -24 -20 -97 -33
-369 -64 -358 -60 -348 -118 6 -34 4 -39 -12 -39 -121 0 -619 -281 -888 -500
-107 -87 -289 -281 -391 -415 -152 -201 -394 -592 -477 -775 -16 -36 -54 -123
-84 -195 -60 -146 -137 -285 -359 -651 -176 -292 -282 -480 -387 -689 -128
-253 -204 -376 -285 -459 -114 -117 -330 -316 -343 -316 -18 0 -4 243 20 355
59 280 228 530 424 624 46 23 91 41 100 41 9 0 19 5 23 11 10 17 -221 6 -321
-16 -111 -23 -260 -83 -341 -138 -72 -47 -183 -155 -254 -244 -71 -90 -75 -64
-13 87 19 46 52 114 73 150 51 88 176 228 244 275 31 21 56 40 56 43 0 10
-142 -75 -208 -126 -187 -142 -388 -428 -481 -684 -69 -189 -84 -269 -84 -438
0 -136 3 -167 26 -255 14 -54 25 -101 22 -103 -9 -9 -98 120 -139 202 -75 153
-98 245 -103 427 -3 97 -1 182 7 227 11 70 56 180 88 216 24 27 -1 13 -63 -38
-70 -56 -120 -119 -160 -201 -50 -103 -66 -185 -66 -336 1 -190 30 -349 96
-512 7 -17 4 -18 -41 -12 -211 29 -363 152 -404 327 -23 102 -4 297 40 394 42
97 7 56 -51 -58 -68 -135 -84 -209 -84 -393 1 -154 2 -163 32 -242 38 -99 95
-187 139 -216 19 -12 34 -25 34 -28 0 -3 -44 -25 -97 -49 -186 -84 -394 -248
-485 -383 -90 -132 -145 -294 -153 -442 -4 -80 -3 -84 6 -40 19 97 29 121 78
195 91 139 259 302 424 413 79 54 263 156 280 157 4 0 -26 -29 -66 -64 -230
-201 -341 -420 -378 -750 l-12 -107 -41 -34 c-65 -53 -186 -113 -271 -135 -91
-23 -160 -25 -233 -6 -29 7 -52 12 -52 10 0 -10 106 -55 191 -82 122 -39 266
-55 382 -42 97 11 155 28 240 71 32 16 60 29 62 29 3 0 -8 -24 -24 -52 -37
-67 -96 -237 -122 -350 -10 -48 -24 -152 -29 -230 -18 -247 11 -413 101 -589
31 -62 33 -40 2 27 -27 57 -28 65 -28 214 1 137 4 166 28 252 46 168 115 311
215 444 42 55 112 116 112 96 0 -4 -11 -61 -25 -127 -39 -192 -78 -536 -96
-855 -14 -253 -6 -548 20 -740 16 -120 18 -149 7 -170 -7 -14 -92 -155 -188
-315 -239 -395 -304 -517 -505 -949 -289 -622 -567 -1384 -667 -1829 -59 -260
-81 -540 -73 -920 6 -310 23 -449 87 -712 67 -277 126 -429 225 -582 l57 -86
-19 -35 c-66 -126 -415 -292 -828 -396 -508 -127 -1125 -187 -1455 -141 -286
40 -514 131 -663 265 -32 29 -60 50 -62 48 -9 -9 57 -101 106 -149 55 -54 232
-175 318 -218 211 -106 511 -180 731 -181 l75 -1 -85 -30 c-499 -174 -1010
-477 -1430 -846 -317 -279 -526 -568 -677 -936 -47 -114 -125 -337 -118 -337
2 0 18 29 35 65 134 281 688 761 1174 1016 204 107 206 107 85 -17 -279 -288
-462 -591 -616 -1024 -121 -340 -183 -643 -197 -959 -5 -108 -11 -130 -38
-131 -14 0 -652 -311 -731 -356 -80 -45 -137 -90 -137 -106 0 -4 2624 -8 5832
-8 l5832 0 -54 56 c-30 31 -72 72 -92 92 -35 31 -53 62 -28 47 6 -3 10 -1 10
5 0 7 -6 10 -12 7 -7 -2 -22 4 -34 14 -20 19 -21 19 -52 -11 -18 -16 -36 -30
-41 -30 -5 0 -11 -7 -15 -15 -3 -8 -10 -15 -16 -15 -6 0 -22 -12 -35 -26 -22
-24 -24 -24 -22 -5 1 12 7 21 15 21 7 0 10 4 7 10 -3 5 -1 10 5 10 6 0 9 4 6
9 -3 5 2 8 12 7 11 0 18 7 20 22 3 16 -2 22 -16 22 -11 0 -22 6 -25 13 -7 20
8 41 23 32 8 -5 11 -4 6 3 -8 13 32 62 51 62 7 0 13 4 13 10 0 5 15 17 33 26
17 9 35 21 39 27 6 9 68 -38 103 -77 6 -6 23 -19 38 -29 15 -10 25 -23 21 -29
-4 -6 -3 -8 3 -5 5 3 23 -6 39 -21 17 -15 68 -61 115 -102 46 -41 97 -87 114
-102 l30 -28 2185 0 c1836 0 2181 2 2165 13 -22 15 -164 82 -490 232 -213 98
-581 247 -910 369 -370 138 -454 170 -627 239 -98 39 -178 73 -178 76 0 3 22
18 49 34 62 34 97 75 131 152 39 86 52 148 51 245 -1 248 -129 415 -333 438
l-63 7 -13 50 c-53 211 -96 440 -128 690 -17 132 -29 594 -17 649 8 38 9 39
81 57 101 26 145 47 242 119 104 78 172 148 235 241 183 272 283 612 315 1061
36 520 -31 1077 -200 1659 -23 79 -63 227 -90 328 -26 101 -53 187 -59 190 -9
6 -8 42 3 142 8 74 20 193 26 264 26 317 73 564 135 710 23 55 57 143 76 195
l34 95 7 -95 c11 -160 117 -520 225 -770 50 -115 194 -403 199 -397 2 2 -10
37 -26 79 -75 193 -135 549 -165 975 l-6 93 56 77 c32 43 105 174 164 293 146
293 215 507 267 830 35 221 30 816 -12 1199 -17 163 -98 735 -119 844 l-15 78
94 142 c130 195 218 361 324 610 193 452 274 758 302 1138 6 79 15 182 20 229
22 195 7 429 -39 624 -10 41 -16 78 -14 80 3 3 16 1 30 -5 13 -5 44 -9 69 -9
42 0 44 1 44 29 0 16 -22 117 -49 223 -26 106 -52 213 -56 237 l-7 43 28 -6
c123 -26 527 -47 607 -32 53 10 49 31 -29 161 -37 61 -89 155 -116 210 -65
132 -64 147 31 370 40 94 76 180 81 193 5 12 14 22 20 22 5 0 10 16 10 35 0
50 22 97 68 144 22 22 61 74 88 116 27 41 54 73 59 72 6 -2 13 -32 16 -68 8
-83 28 -177 40 -184 5 -4 9 3 9 15 0 11 10 40 21 63 19 37 23 40 30 22 12 -30
10 -128 -2 -164 -19 -53 -5 -44 48 32 53 75 100 165 148 281 21 49 38 74 60
87 40 25 50 24 63 -5 17 -38 81 -104 142 -149 30 -22 59 -46 63 -54 14 -23 28
-14 16 10 -14 25 -40 129 -34 135 2 2 21 -15 42 -39 21 -23 63 -60 93 -82 30
-23 60 -48 67 -56 19 -26 23 -8 7 38 -17 50 -45 273 -35 283 3 4 17 9 31 13
35 8 79 -40 135 -146 25 -46 45 -79 46 -74 0 6 2 65 2 132 1 67 4 123 7 126 3
3 55 10 115 16 229 24 301 32 333 37 l32 5 0 944 0 945 -22 4 c-92 18 -308 56
-328 58 -24 3 -25 1 -28 -61 -2 -37 1 -67 7 -71 6 -3 12 -32 13 -64 1 -31 5
-59 8 -61 3 -2 7 -36 9 -77 1 -40 6 -75 10 -78 4 -3 7 -34 7 -70 -1 -36 7 -90
16 -120 26 -85 58 -226 58 -257 1 -29 25 -66 50 -76 8 -3 -1 -6 -20 -6 -119
-3 -733 -44 -875 -59 -105 -12 -202 -16 -255 -13 l-85 6 -7 60 c-12 93 -16 88
-17 -20 -2 -159 -20 -467 -36 -583 -29 -220 -92 -473 -196 -789 l-70 -213 -62
0 c-34 0 -91 7 -127 14 -77 17 -202 66 -207 82 -2 6 28 25 66 42 122 55 103
72 -50 47 -117 -20 -208 -11 -282 27 -23 11 -98 75 -167 142 -123 119 -257
218 -347 258 -151 67 -403 1 -718 -189 -86 -52 -155 -114 -155 -140 0 -16 -1
-16 51 3 73 26 211 54 268 54 87 0 221 -29 282 -61 85 -45 217 -168 393 -363
88 -98 168 -182 177 -187 39 -20 137 -20 288 0 84 12 175 21 202 21 27 0 49 4
49 9 0 4 -28 18 -62 31 -66 24 -65 32 7 44 22 4 111 27 198 52 87 25 161 44
163 41 3 -2 -28 -80 -68 -173 -95 -222 -97 -247 -35 -370 25 -49 77 -138 116
-198 70 -107 88 -143 78 -153 -12 -11 -359 -3 -472 12 -148 19 -155 21 -183
54 -18 20 -22 21 -17 7 3 -11 10 -51 16 -90 6 -39 30 -154 55 -256 50 -208 51
-220 27 -220 -51 0 -230 61 -422 143 -118 50 -220 94 -225 96 -5 2 -6 -4 -3
-13 4 -9 20 -76 37 -149 17 -73 41 -167 54 -209 l23 -76 -36 -6 c-20 -3 -53
-8 -73 -12 -38 -6 -133 11 -263 47 -69 20 -275 116 -275 128 0 4 21 12 46 19
26 7 43 16 40 20 -4 4 -83 8 -174 9 -244 2 -710 53 -909 98 -180 41 -599 193
-775 281 -198 100 -452 278 -670 470 -172 152 -541 533 -843 869 -159 177
-391 409 -515 514 -63 54 -149 129 -190 168 -41 38 -129 116 -195 172 -185
159 -296 271 -293 295 2 15 42 39 165 97 90 42 172 79 184 82 20 5 19 10 -29
69 -128 159 -325 424 -346 465 -24 48 -20 61 22 71 99 24 421 82 455 82 47 0
49 18 1 22 -34 3 -38 7 -61 63 -103 246 -125 306 -130 352 -6 50 -5 52 22 59
40 10 418 -3 488 -16 91 -18 101 -6 12 15 -44 9 -81 19 -83 20 -2 2 25 60 60
129 52 100 61 126 47 126 -11 0 -29 -25 -53 -74z m-747 -953 c17 -21 70 -93
118 -160 49 -66 114 -149 146 -182 31 -34 57 -65 57 -69 0 -4 -22 -15 -48 -24
-87 -31 -302 -137 -308 -152 -12 -31 32 -88 154 -202 70 -65 190 -180 267
-255 77 -75 176 -169 220 -208 44 -40 82 -77 83 -82 6 -15 -65 -10 -105 6 -21
9 -45 23 -55 32 -35 32 -28 5 12 -45 22 -28 40 -53 40 -56 0 -2 -29 -21 -65
-41 -69 -38 -124 -47 -163 -26 -18 9 -22 9 -22 -2 0 -19 71 -83 115 -104 41
-20 30 -33 -27 -33 -20 0 -40 -4 -43 -10 -4 -6 6 -10 23 -10 16 0 44 -3 62 -6
26 -6 31 -10 25 -28 -3 -12 -11 -56 -17 -99 -10 -66 -15 -78 -32 -81 -46 -8
-262 -63 -278 -70 -20 -9 -22 0 -37 194 -22 263 -42 450 -51 472 -8 18 -9 13
-5 -22 3 -25 9 -106 15 -180 42 -561 44 -611 44 -1140 0 -648 -13 -1339 -26
-1316 -5 9 -7 20 -4 25 4 5 -4 7 -15 4 -12 -4 -24 -14 -26 -25 -3 -10 -12 -18
-20 -18 -18 0 -14 -69 11 -190 24 -113 119 -387 167 -481 11 -22 15 -39 9 -39
-6 0 -8 -4 -5 -10 3 -6 -1 -7 -10 -4 -16 6 -85 -24 -85 -37 0 -4 -13 -12 -30
-19 -16 -7 -30 -16 -30 -21 0 -5 -7 -9 -14 -9 -8 0 -27 -11 -42 -25 -14 -13
-30 -22 -34 -20 -5 3 -17 -6 -28 -20 -11 -14 -27 -25 -36 -25 -9 0 -16 -4 -16
-10 0 -5 -9 -10 -20 -10 -11 0 -20 -4 -20 -9 0 -5 -18 -12 -40 -16 -22 -4 -40
-11 -40 -16 0 -5 -9 -9 -20 -9 -11 0 -20 -6 -20 -14 0 -17 -22 -26 -48 -19
-12 3 -31 -2 -44 -11 -12 -9 -29 -16 -36 -16 -8 0 -26 -9 -40 -21 -15 -11 -28
-16 -30 -10 -2 5 -23 -4 -47 -20 -23 -16 -50 -29 -59 -29 -9 0 -16 -4 -16 -8
0 -10 -90 -32 -130 -32 -16 0 -30 -4 -32 -8 -4 -11 -168 -52 -208 -52 -20 0
-30 -5 -30 -15 0 -11 -11 -15 -39 -15 -22 0 -41 -5 -43 -10 -2 -7 -15 -6 -36
2 -28 11 -35 10 -43 -2 -9 -13 -10 -12 -5 3 3 11 0 17 -10 17 -31 0 -279 412
-349 580 -26 63 -68 134 -50 85 4 -11 8 -26 8 -32 0 -7 4 -13 9 -13 4 0 8 -4
8 -10 0 -81 -165 297 -247 565 -37 124 -121 468 -144 590 -63 349 -83 646 -63
960 15 231 18 263 41 380 34 182 85 324 184 515 92 177 205 343 386 570 275
345 497 541 907 799 183 116 204 127 316 167 95 34 123 32 159 -13z m7041
-493 c0 -4 11 -5 24 -3 31 6 66 -13 66 -35 0 -9 -7 -26 -15 -36 -8 -11 -15
-32 -15 -47 0 -15 -5 -31 -11 -35 -6 -3 -8 -16 -4 -28 3 -11 6 -42 5 -68 -1
-36 3 -48 13 -48 16 0 23 -22 38 -115 21 -128 22 -165 5 -165 -9 0 -16 -7 -16
-15 0 -8 2 -15 5 -15 12 0 66 87 75 122 6 21 15 36 19 33 5 -2 17 -35 26 -72
10 -38 21 -72 25 -76 8 -9 36 46 81 160 32 80 36 136 14 190 -8 20 -13 38 -11
40 9 9 78 -73 97 -114 11 -24 21 -43 23 -43 10 0 4 104 -9 153 -8 32 -15 65
-15 72 0 25 35 17 128 -30 l89 -46 1 -42 c3 -246 7 -295 27 -318 l20 -22 -34
19 c-19 10 -67 49 -107 87 -85 77 -104 83 -104 33 0 -62 29 -262 45 -306 l15
-42 -72 67 c-40 38 -74 63 -75 58 -2 -6 3 -38 12 -70 16 -55 32 -314 24 -373
-4 -23 -6 -22 -31 20 -14 25 -67 84 -116 132 l-91 86 6 -91 c5 -99 28 -271 38
-300 15 -37 -19 -14 -101 68 -47 47 -90 85 -96 85 -5 0 -7 -12 -4 -27 3 -16 8
-48 12 -72 l6 -45 -38 31 c-92 74 -174 191 -174 249 0 28 -18 32 -27 7 -20
-59 -160 -369 -191 -423 l-36 -65 -7 53 c-11 88 -19 122 -29 122 -5 0 -20 -21
-33 -47 -13 -25 -27 -42 -30 -37 -5 9 -22 125 -31 207 -1 15 -5 29 -7 31 -2 3
-36 -40 -74 -95 -84 -121 -101 -138 -81 -82 8 22 19 66 26 99 6 32 23 97 37
144 91 313 119 483 133 809 5 117 10 215 13 217 8 8 201 36 337 48 166 15 200
16 200 6z m-6258 -917 c28 -27 143 -149 256 -273 113 -124 264 -287 336 -364
72 -76 180 -190 240 -254 l109 -116 -53 -14 c-49 -12 -55 -12 -67 4 -11 15
-18 11 -76 -40 -35 -31 -67 -56 -69 -56 -3 0 -9 17 -12 38 -4 20 -9 45 -12 55
-13 42 -85 0 -114 -66 l-18 -40 -21 34 c-24 40 -36 105 -27 154 11 59 -11 40
-62 -56 l-49 -90 -13 46 c-7 25 -17 48 -21 51 -9 5 -11 2 -26 -56 l-9 -34 -31
49 c-63 100 -110 137 -66 52 14 -27 14 -30 1 -19 -17 14 -38 85 -38 126 0 37
-14 32 -34 -11 -9 -21 -26 -49 -36 -63 l-20 -25 0 32 c0 18 -4 54 -9 80 -5 26
-13 66 -16 88 -11 62 -24 13 -15 -55 4 -30 6 -56 5 -58 -5 -5 -55 71 -55 83 0
5 -5 17 -10 25 -8 12 -15 9 -45 -20 l-35 -34 0 77 c0 42 -3 77 -7 77 -5 -1
-20 -17 -36 -37 l-27 -36 5 34 c4 25 3 29 -4 14 -8 -19 -9 -19 -16 -2 -7 17
-4 67 11 180 8 56 -4 61 -48 17 -16 -16 -31 -30 -33 -30 -1 0 3 18 11 40 19
53 4 156 -21 146 -17 -6 -21 19 -5 29 5 3 9 21 8 39 -1 18 2 38 6 45 5 7 0 18
-10 26 -18 13 -17 14 14 15 46 0 40 13 -18 33 -28 10 -67 28 -88 40 l-37 22
40 5 c22 3 67 22 100 43 45 27 71 37 103 37 51 0 55 14 7 30 -60 20 -50 30 30
30 l76 0 51 -47z m-272 -398 c0 -14 -4 -25 -10 -25 -5 0 -10 11 -10 25 0 14 5
25 10 25 6 0 10 -11 10 -25z m-2520 -322 c0 -27 -7 -120 -15 -208 -8 -88 -15
-232 -15 -320 l0 -160 -99 -59 c-124 -74 -274 -194 -473 -380 -87 -81 -158
-142 -158 -136 0 48 724 1310 751 1310 5 0 9 -21 9 -47z m7191 -1212 c68 -32
163 -74 211 -92 l88 -34 14 -50 c76 -261 83 -535 27 -1075 -25 -240 -36 -304
-65 -405 -49 -169 -84 -269 -154 -436 -160 -385 -239 -530 -469 -856 -71 -102
-322 -385 -385 -434 -38 -31 -41 -32 -36 -11 5 17 0 26 -21 36 -30 16 -121
110 -121 126 0 5 -25 38 -55 73 -30 34 -68 78 -85 97 -17 19 -46 55 -65 80
-18 25 -45 58 -59 74 -14 16 -26 34 -26 41 0 6 -13 24 -30 40 -16 16 -30 35
-30 42 0 7 -6 13 -13 13 -7 0 -27 20 -43 44 -33 50 -197 226 -211 226 -5 0
-23 15 -41 33 l-32 33 106 129 c113 140 208 274 298 423 67 112 129 232 122
239 -2 3 -12 -10 -22 -29 -9 -18 -19 -28 -21 -23 -2 6 -19 9 -38 7 -28 -3 -35
-1 -35 13 0 21 -22 43 -38 37 -7 -2 -10 2 -6 12 3 9 11 13 16 10 6 -4 9 -1 6
7 -6 17 22 50 36 43 6 -3 2 2 -8 10 -18 14 -15 20 6 17 4 0 5 6 2 13 -3 8 4
45 16 83 45 144 52 225 57 665 5 399 6 416 24 421 30 8 22 34 -13 46 -42 15
-31 24 13 10 39 -12 181 -15 198 -5 20 13 12 25 -29 46 -29 15 -40 27 -40 43
0 13 -6 29 -12 36 -11 10 7 12 96 6 112 -8 119 -10 196 -60 135 -86 332 -145
489 -145 121 0 141 5 141 36 0 13 -22 108 -50 211 -27 103 -50 188 -50 190 0
9 28 -2 141 -56z m-1721 -86 c88 -19 289 -42 435 -50 138 -7 254 -23 273 -37
6 -6 12 -19 12 -30 0 -11 17 -36 38 -55 l37 -34 -55 6 c-30 4 -82 13 -114 21
-67 16 -91 7 -63 -24 9 -10 17 -21 17 -25 0 -9 -76 19 -103 38 -12 8 -25 15
-29 15 -14 0 -8 -23 10 -37 15 -13 13 -14 -19 -10 -20 3 -66 17 -103 32 -36
14 -70 24 -75 20 -5 -3 -7 -22 -4 -43 l6 -37 -34 32 c-40 37 -135 84 -156 76
-9 -4 -37 16 -73 52 -46 45 -62 56 -79 50 -17 -5 -21 -2 -21 14 0 10 -3 27 -6
36 -5 13 -2 15 17 10 13 -3 53 -12 89 -20z m-3343 -547 c-2 -13 -4 -5 -4 17
-1 22 1 32 4 23 2 -10 2 -28 0 -40z m-1647 -584 c0 -8 -5 -12 -10 -9 -6 4 -8
11 -5 16 9 14 15 11 15 -7z m4272 -3013 c-2 -16 7 -89 22 -163 62 -326 122
-807 99 -797 -4 2 -85 43 -179 90 -94 47 -176 88 -182 90 -8 3 9 68 53 199 36
107 90 285 121 394 30 110 57 204 60 208 9 14 11 9 6 -21z m-2452 -48 c-9 -32
-78 -205 -117 -296 -73 -168 -250 -494 -344 -634 -27 -40 -49 -76 -49 -81 0
-18 -104 -65 -248 -112 -145 -48 -146 -49 -92 -49 30 0 95 8 143 18 48 9 90
14 92 10 6 -8 -169 -237 -251 -330 -130 -145 -298 -318 -305 -313 -4 2 -42 56
-84 119 -44 65 -115 154 -163 204 -78 79 -96 92 -173 123 -47 20 -118 46 -157
59 -40 13 -72 26 -72 29 0 4 34 21 75 40 l76 33 90 -31 c143 -49 211 -113 319
-302 99 -174 112 -193 122 -177 5 9 4 45 -2 85 -6 38 -10 95 -8 127 l3 57 52
-36 c29 -20 55 -36 59 -36 3 0 -9 18 -26 40 -17 22 -36 38 -40 35 -5 -3 -12 0
-16 6 -5 8 -3 9 6 4 25 -16 4 15 -59 86 -55 61 -78 78 -164 120 -55 27 -107
49 -116 49 -9 0 -25 7 -35 15 -11 8 -28 15 -38 15 -37 0 -15 19 110 96 203
126 489 336 787 578 342 279 416 337 439 348 21 9 33 8 66 -7 50 -22 60 -14
36 30 -21 39 -18 47 32 80 50 32 63 32 52 -2z m-4906 -405 c9 -48 26 -113 36
-143 l19 -56 -80 -92 c-186 -210 -333 -455 -390 -649 -14 -49 6 -30 30 27 64
154 237 345 431 476 l74 51 19 -43 c16 -38 16 -51 6 -122 -24 -166 8 -311 136
-612 24 -55 52 -127 63 -160 10 -33 38 -98 62 -144 l42 -85 -11 -136 c-32
-390 -3 -1028 64 -1418 30 -173 30 -172 4 -172 -38 0 -142 -64 -199 -121 -63
-63 -110 -145 -136 -234 -19 -67 -24 -190 -8 -219 9 -15 12 -11 17 29 9 62 34
101 110 171 104 96 206 154 273 154 17 0 23 -10 34 -57 17 -80 64 -210 108
-301 l37 -77 1 -285 c1 -261 6 -331 40 -645 4 -41 1 -77 -9 -115 -33 -116 -29
-238 8 -311 14 -26 12 -29 -101 -147 -180 -190 -331 -306 -520 -400 -167 -84
-281 -107 -406 -83 -94 19 -138 42 -216 113 -39 36 -129 111 -200 166 -141
110 -231 203 -371 382 -142 181 -211 330 -281 605 -85 333 -105 523 -97 953 9
523 57 798 233 1322 169 503 330 902 564 1400 115 244 211 425 375 710 78 135
157 273 176 307 19 34 37 59 40 55 3 -4 14 -46 23 -94z m2906 -28 c0 -11 7
-20 16 -20 8 0 12 -5 9 -10 -4 -7 -13 -6 -27 1 -14 8 -23 8 -31 0 -6 -6 -17
-11 -24 -11 -13 0 -63 43 -63 55 0 3 27 5 60 5 53 0 60 -2 60 -20z m-280 -40
c0 -18 7 -20 60 -20 53 0 60 -2 60 -20 0 -11 -4 -20 -10 -20 -5 0 -6 -8 -3
-17 5 -13 2 -15 -11 -10 -9 4 -15 3 -12 -2 7 -11 -43 -33 -56 -25 -6 4 -8 3
-5 -3 8 -12 -200 -106 -216 -97 -7 4 -9 3 -4 -1 9 -10 -24 -25 -146 -66 -48
-16 -92 -27 -97 -24 -4 3 -10 1 -12 -4 -2 -6 -17 -6 -38 -1 -24 5 -28 8 -12 9
15 1 22 7 22 21 0 13 7 20 20 20 13 0 20 7 20 20 0 13 7 20 20 20 13 0 20 7
20 20 0 17 7 20 40 20 33 0 40 3 40 20 0 13 7 20 20 20 13 0 20 7 20 20 0 13
7 20 20 20 12 0 20 7 20 16 0 9 9 18 20 21 11 3 20 9 20 14 0 5 9 9 20 9 11 0
20 5 20 10 0 6 27 10 60 10 53 0 60 2 60 20 0 13 7 20 20 20 13 0 20 -7 20
-20z m200 -9 c0 -5 -7 -12 -16 -15 -22 -9 -24 -8 -24 9 0 8 9 15 20 15 11 0
20 -4 20 -9z m70 4 c0 -5 -52 -31 -145 -72 -5 -3 1 5 14 16 12 12 27 19 31 16
5 -3 10 -1 12 3 1 5 21 16 43 25 47 19 45 18 45 12z m490 -135 c0 -5 -11 -15
-25 -22 -18 -10 -22 -17 -15 -28 5 -8 10 -10 10 -4 0 6 7 11 15 11 8 0 15 -4
15 -9 0 -7 -25 -12 -33 -5 -2 1 -11 -4 -20 -12 -14 -11 -17 -11 -17 0 0 11 -2
11 -8 2 -7 -11 -83 -43 -103 -43 -5 0 -9 5 -9 11 0 5 4 8 9 5 5 -3 12 1 15 10
4 9 9 14 13 11 3 -4 11 0 17 8 6 8 22 16 35 17 22 3 34 10 76 48 13 12 25 12
25 0z m70 -25 c-7 -9 -15 -13 -19 -10 -3 3 1 10 9 15 21 14 24 12 10 -5z
m-2864 -30 c6 -25 3 -48 -17 -152 l-10 -53 -31 16 c-31 16 -94 16 -131 -1 -15
-6 -17 -4 -13 16 3 13 8 49 11 79 3 30 10 61 14 69 7 10 112 43 163 50 4 1 10
-10 14 -24z m-210 -52 c-18 -88 -36 -280 -36 -386 0 -128 17 -218 45 -246 15
-15 15 -14 6 12 -17 46 -13 50 20 22 18 -14 45 -29 60 -32 31 -6 35 -21 23
-95 l-7 -38 -39 45 c-22 25 -44 43 -49 39 -5 -3 13 -31 41 -62 46 -51 50 -61
46 -92 -3 -19 -13 -102 -22 -185 -8 -82 -17 -151 -19 -153 -8 -8 -57 91 -88
178 -19 52 -62 163 -95 245 -123 305 -133 382 -79 595 l32 125 75 27 c94 34
93 34 86 1z m2791 -9 c-3 -3 -12 -4 -19 -1 -8 3 -5 6 6 6 11 1 17 -2 13 -5z
m523 -64 c-20 -17 -20 -20 -6 -26 29 -11 17 -30 -46 -75 -93 -65 -201 -132
-215 -132 -7 0 -13 -4 -13 -9 0 -9 -59 -48 -73 -48 -4 0 2 10 13 23 12 12 22
20 23 18 1 -2 19 13 41 32 21 20 44 33 51 31 7 -3 16 0 21 7 5 8 3 10 -7 4 -8
-5 -5 2 6 14 11 13 27 20 37 18 10 -3 18 -1 18 4 0 5 6 9 13 9 7 0 18 14 24
31 7 17 21 33 32 36 12 3 21 9 21 14 0 10 73 79 79 74 2 -3 -6 -14 -19 -25z
m-650 -10 c-8 -5 -11 -13 -6 -17 4 -4 14 1 22 12 13 18 15 18 30 3 21 -20 11
-68 -13 -68 -9 0 -14 -3 -10 -6 3 -4 27 -3 53 1 33 5 43 9 33 16 -9 5 1 8 31
8 60 -1 80 3 80 13 0 5 4 6 10 3 14 -9 81 6 74 16 -3 5 2 6 10 3 8 -3 40 2 71
11 89 25 92 10 16 -74 -22 -25 -37 -49 -34 -54 3 -6 1 -7 -5 -3 -7 4 -14 -3
-18 -19 -3 -14 -11 -22 -17 -18 -7 4 -8 0 -4 -11 5 -14 3 -17 -8 -12 -8 3 -14
1 -12 -5 3 -17 -66 -69 -93 -70 -45 -2 -130 14 -130 24 0 5 -9 7 -20 4 -11 -3
-20 0 -20 6 0 7 -4 6 -9 -3 -6 -8 -7 -18 -5 -22 3 -5 -5 -4 -18 1 -104 42
-494 137 -651 160 l-122 17 130 13 c72 7 213 22 315 33 102 12 206 21 233 21
27 0 47 5 47 11 0 6 4 5 9 -2 7 -11 9 -11 14 2 4 9 12 16 19 16 9 0 9 -3 -2
-10z m685 -19 c3 -5 2 -12 -3 -15 -5 -3 -9 1 -9 9 0 17 3 19 12 6z m3530 -115
c96 -46 189 -94 206 -107 l32 -22 -6 -311 c-4 -209 -13 -370 -26 -491 -11 -99
-21 -186 -21 -193 0 -15 -105 -93 -165 -122 -52 -25 -54 -37 -3 -21 97 31 132
41 141 41 8 0 1 -109 -8 -118 -4 -5 -275 68 -400 107 -220 71 -504 130 -506
107 0 -7 -2 -7 -5 1 -3 6 36 82 86 170 153 267 291 560 411 876 37 96 69 167
77 167 7 0 91 -38 187 -84z m-6732 58 c18 -9 33 -17 34 -18 1 -1 -9 -92 -22
-202 -14 -109 -25 -205 -25 -211 0 -7 -12 -13 -27 -13 -20 0 -40 14 -76 52
l-49 53 4 140 c3 77 10 152 16 168 19 46 86 61 145 31z m1777 -43 c63 -11 119
-21 123 -21 5 0 5 -5 1 -12 -5 -8 2 -9 25 -5 60 12 364 -66 645 -167 l68 -24
-62 -46 c-36 -27 -70 -44 -79 -42 -63 20 -243 64 -456 111 -223 50 -258 56
-325 51 -215 -17 -302 -18 -360 -6 -33 7 -60 16 -60 20 0 4 25 42 55 83 l56
76 77 4 c115 6 166 2 292 -22z m4404 -137 c-44 -172 -131 -464 -177 -594 -53
-148 -137 -360 -149 -376 -4 -6 -43 -14 -87 -18 -68 -5 -139 -22 -241 -56 -21
-7 -22 -9 -5 -9 49 -2 110 -86 85 -117 -20 -23 2 -17 94 27 48 23 89 39 92 36
10 -9 -56 -126 -79 -141 -18 -11 -356 -143 -409 -160 -26 -8 -22 -25 8 -36 38
-15 109 -12 209 9 50 11 92 18 94 15 7 -7 -113 -149 -202 -238 -48 -49 -85
-91 -82 -94 6 -6 220 207 305 304 45 51 45 51 132 64 179 27 274 12 693 -111
292 -86 327 -99 319 -118 -4 -9 -7 -24 -8 -33 0 -10 -4 -18 -8 -18 -4 0 -21
-28 -38 -62 -34 -69 -93 -152 -148 -210 -29 -31 -32 -38 -18 -38 10 0 35 17
54 38 40 42 192 219 237 277 28 34 33 37 53 26 12 -6 48 -15 80 -19 l57 -7 3
-55 c2 -30 -1 -142 -8 -249 -8 -141 -8 -197 0 -205 8 -8 9 1 4 32 -5 29 -3 42
5 42 7 0 9 5 6 10 -11 18 6 52 23 45 8 -3 20 0 25 7 6 9 7 5 3 -12 -3 -14 -6
-52 -6 -85 0 -54 -3 -61 -25 -71 -18 -9 -25 -9 -29 0 -3 6 -4 -11 -1 -39 l4
-50 -13 50 -14 50 -1 -52 c-1 -31 3 -53 10 -53 5 0 7 -5 4 -10 -4 -6 -10 -8
-14 -5 -10 5 -26 -154 -17 -163 3 -3 6 7 6 23 0 48 11 20 15 -37 2 -29 4 -60
5 -68 0 -8 7 -1 15 15 l15 30 -6 -34 c-10 -53 -12 -66 -14 -66 -1 0 -4 -18 -5
-40 -5 -66 -11 -94 -25 -110 -26 -31 -28 -20 -20 125 2 38 3 41 10 20 5 -15 6
4 3 45 -3 39 -7 71 -8 73 -1 1 -10 -75 -21 -170 l-18 -172 -124 -206 c-197
-326 -350 -555 -516 -773 -202 -265 -268 -341 -378 -435 -182 -155 -291 -227
-618 -407 -118 -65 -296 -163 -395 -219 -408 -227 -522 -286 -765 -395 -140
-63 -303 -138 -361 -167 -142 -71 -264 -117 -379 -144 -82 -19 -112 -22 -225
-16 -149 6 -239 28 -348 82 -225 113 -316 190 -579 492 -224 257 -342 402
-477 587 -145 198 -419 601 -557 821 -220 351 -388 740 -474 1099 -68 285 -83
494 -64 870 8 143 19 287 25 319 34 188 312 850 496 1181 77 138 68 131 122
86 107 -89 116 -92 285 -107 228 -20 655 -113 821 -179 204 -82 551 -299 653
-407 22 -24 38 -69 24 -67 -19 3 -33 -2 -28 -10 6 -8 -120 -89 -199 -129 -56
-27 -197 -71 -253 -79 -94 -12 -76 -22 38 -23 127 0 394 29 565 61 421 79
1094 419 1621 819 198 151 203 145 81 -99 -114 -226 -233 -416 -375 -596 -197
-250 -505 -535 -669 -620 -29 -15 -53 -30 -53 -32 0 -3 23 -3 51 0 66 8 257
74 427 148 75 32 137 57 140 55 2 -2 -3 -15 -12 -28 -8 -12 -34 -79 -57 -148
l-42 -125 6 -230 c7 -243 23 -555 32 -592 3 -13 10 -23 17 -23 12 0 7 193 -12
445 -5 72 -9 194 -10 271 0 128 3 151 29 240 17 55 42 125 56 157 23 49 34 61
76 82 26 14 52 25 57 25 21 0 252 -496 333 -715 33 -92 49 -121 49 -94 0 52
-140 387 -267 639 -91 180 -93 185 -74 200 11 8 86 56 166 105 136 83 486 338
685 499 238 191 463 416 603 601 67 89 99 126 104 122 1 -2 -9 -48 -23 -103z
m-2339 -24 c-27 -12 -43 -12 -25 0 8 5 22 9 30 9 10 0 8 -3 -5 -9z m175 -230
c0 -13 7 -20 20 -20 13 0 20 -7 20 -20 0 -13 7 -20 20 -20 13 0 20 -7 20 -20
0 -13 7 -20 20 -20 17 0 20 -7 20 -40 0 -33 3 -40 20 -40 13 0 20 -7 20 -20 0
-13 7 -20 20 -20 13 0 20 -7 20 -19 0 -25 55 -34 76 -13 8 8 18 11 22 7 10
-10 -30 -36 -46 -30 -7 2 -10 1 -7 -4 7 -12 -273 -164 -442 -241 -285 -128
-487 -190 -743 -225 -58 -8 -118 -18 -135 -21 -16 -4 34 26 112 65 107 54 147
70 166 66 21 -6 26 -3 32 22 5 22 28 42 103 91 156 100 334 248 552 459 87 85
110 98 110 63z m430 -180 c-14 -11 -46 -31 -71 -45 -40 -22 -48 -23 -53 -9 -4
11 -1 14 12 10 10 -3 40 9 72 29 61 38 78 45 40 15z m1760 -15 c13 8 -14 -54
-82 -187 -43 -84 -63 -115 -74 -111 -7 3 -14 -1 -14 -8 0 -7 -2 -10 -5 -8 -2
3 24 77 59 164 50 125 65 153 68 131 4 -35 28 -48 28 -16 0 12 -4 19 -8 16 -5
-3 -9 1 -9 9 0 8 4 12 9 9 4 -3 8 1 9 8 0 10 2 10 6 0 2 -6 9 -10 13 -7z m867
-57 c-3 -8 -6 -5 -6 6 -1 11 2 17 5 13 3 -3 4 -12 1 -19z m0 -110 c-2 -18 -4
-4 -4 32 0 36 2 50 4 33 2 -18 2 -48 0 -65z m-1577 38 c0 -3 -28 -26 -61 -52
-34 -26 -60 -42 -58 -36 2 6 29 29 59 51 60 43 60 43 60 37z m-2090 -19 c0 -2
-15 -16 -32 -33 l-33 -29 29 33 c28 30 36 37 36 29z m-70 -61 c0 -2 -8 -10
-17 -17 -16 -13 -17 -12 -4 4 13 16 21 21 21 13z m3803 -54 l49 3 -6 -30 c-4
-19 -32 -55 -78 -100 -39 -38 -68 -61 -64 -51 4 11 10 69 13 130 6 109 6 110
22 77 15 -31 18 -32 64 -29z m-1783 23 c-7 -9 -15 -13 -19 -10 -3 3 1 10 9 15
21 14 24 12 10 -5z m1800 5 c0 -5 -2 -10 -4 -10 -3 0 -8 5 -11 10 -3 6 -1 10
4 10 6 0 11 -4 11 -10z m-2064 -45 c-15 -16 -26 -24 -26 -20 0 11 42 56 47 51
2 -2 -7 -16 -21 -31z m224 10 c0 -6 -247 -192 -355 -267 -158 -109 -466 -294
-451 -269 4 6 20 18 35 25 15 8 45 32 67 53 70 68 178 158 186 155 4 -1 8 4 8
12 0 8 21 32 47 53 26 21 58 50 71 66 13 15 29 24 34 20 6 -3 8 -2 5 3 -3 6
17 34 44 64 27 30 49 51 48 45 -3 -25 3 -35 21 -35 16 0 20 -7 20 -36 0 -24 4
-34 13 -31 6 2 11 10 10 16 -2 6 2 11 8 11 6 0 9 9 6 20 -6 23 -3 24 22 8 15
-9 24 -8 45 5 14 10 26 24 26 33 0 8 5 12 10 9 6 -4 24 5 41 19 30 26 39 30
39 21z m730 -65 c-6 -11 -13 -20 -16 -20 -2 0 0 9 6 20 6 11 13 20 16 20 2 0
0 -9 -6 -20z m-49 -53 c-10 -9 -11 -8 -5 6 3 10 9 15 12 12 3 -3 0 -11 -7 -18z
m1279 8 c0 -14 -214 -162 -284 -196 -45 -22 -72 -33 -61 -24 11 8 28 22 38 30
9 8 17 13 17 10 0 -3 18 13 41 35 23 22 45 37 50 34 5 -3 13 5 18 18 9 20 16
11 12 -14 -2 -13 6 -9 20 9 10 11 10 14 2 9 -23 -13 -14 20 11 44 23 21 26 21
41 6 16 -15 19 -14 53 13 39 32 42 34 42 26z m-1275 -35 c-3 -5 -12 -10 -18
-10 -7 0 -6 4 3 10 19 12 23 12 15 0z m-47 -75 c-16 -30 -31 -55 -34 -55 -2 0
8 25 23 55 15 30 30 55 34 55 4 0 -6 -25 -23 -55z m-65 -10 c-3 -9 -8 -14 -10
-11 -3 3 -2 9 2 15 9 16 15 13 8 -4z m1256 -121 c-40 -120 -128 -293 -220
-434 -38 -58 -69 -102 -69 -99 0 3 18 44 39 90 47 101 108 293 125 391 l12 71
70 43 c38 23 70 41 72 39 2 -2 -11 -47 -29 -101z m-1351 39 c-16 -2 -40 -2
-55 0 -16 2 -3 4 27 4 30 0 43 -2 28 -4z m268 -58 c161 -23 372 -61 546 -99
85 -19 175 -37 199 -41 71 -11 71 -11 57 -96 -6 -41 -13 -75 -13 -77 -1 -1
-26 8 -56 22 -97 42 -490 145 -679 177 -120 20 -222 22 -262 4 -29 -12 -21 11
22 70 23 31 48 55 59 55 9 0 67 -7 127 -15z m1024 -230 c0 -8 -4 -15 -10 -15
-5 0 -7 7 -4 15 4 8 8 15 10 15 2 0 4 -7 4 -15z m-38 -134 l-3 -90 40 -21 c57
-28 52 -35 -6 -8 -58 27 -113 65 -113 79 0 13 75 129 84 129 1 0 0 -40 -2 -89z
m-157 39 c3 -6 -1 -7 -9 -4 -18 7 -21 14 -7 14 6 0 13 -4 16 -10z m222 -462
c-2 -13 -4 -5 -4 17 -1 22 1 32 4 23 2 -10 2 -28 0 -40z m-60 -120 c-3 -8 -6
-5 -6 6 -1 11 2 17 5 13 3 -3 4 -12 1 -19z m30 -270 c-2 -13 -4 -5 -4 17 -1
22 1 32 4 23 2 -10 2 -28 0 -40z m1042 -110 c12 -62 51 -221 86 -353 93 -346
143 -586 181 -868 21 -153 30 -733 15 -910 -41 -455 -193 -850 -408 -1061 -63
-61 -203 -166 -263 -196 -48 -24 -84 -35 -76 -22 5 8 -141 23 -211 21 -90 -1
-193 12 -193 26 0 14 -29 21 -132 31 -48 5 -68 11 -68 20 0 20 -37 17 -50 -3
-17 -26 -10 -6 60 167 63 155 164 435 180 498 4 19 26 59 48 90 93 134 221
389 284 567 l29 80 -5 -175 c-9 -311 -87 -655 -224 -984 -37 -90 -51 -112 -79
-128 -18 -11 -33 -26 -33 -34 0 -20 10 -18 61 14 62 40 104 85 164 177 283
431 426 1080 500 2265 9 140 25 320 35 400 44 346 65 490 71 490 3 0 16 -51
28 -112z m-7293 -494 c61 -170 94 -252 154 -379 l52 -110 -6 -330 c-4 -181
-10 -352 -14 -380 l-7 -50 -56 80 c-84 121 -198 313 -209 354 -22 82 -69 626
-55 639 2 2 10 -18 18 -45 36 -122 122 -347 168 -438 101 -204 135 -238 79
-79 -61 174 -134 497 -185 826 -18 120 -18 149 2 83 8 -27 35 -105 59 -171z
m6059 -369 c-12 -182 -78 -726 -121 -990 -65 -400 -135 -755 -230 -1160 -25
-104 -47 -202 -51 -217 -3 -16 -9 -28 -12 -28 -4 0 -47 33 -94 73 -125 104
-257 268 -257 319 0 26 -69 154 -122 229 -78 107 -128 191 -220 373 -64 127
-77 161 -66 167 32 18 208 156 275 217 185 166 542 657 806 1107 l82 140 8
-70 c4 -39 5 -110 2 -160z m-5804 -292 c11 -13 11 -15 1 -9 -10 6 -13 -7 -10
-62 1 -39 -1 -74 -5 -78 -4 -4 -7 32 -7 79 0 48 2 87 4 87 2 0 10 -8 17 -17z
m-11 -313 c-6 -74 -7 -78 -9 -29 -1 51 8 124 14 117 2 -2 -1 -41 -5 -88z
m-352 -128 c11 -15 77 -79 146 -142 l126 -114 0 -150 c0 -154 -11 -337 -31
-526 l-11 -105 -39 3 c-37 4 -40 6 -54 54 -24 81 -62 262 -105 492 -35 191
-45 261 -65 469 -5 54 5 59 33 19z m339 -69 c-3 -10 -5 -2 -5 17 0 19 2 27 5
18 2 -10 2 -26 0 -35z m-30 -245 c-3 -8 -6 -5 -6 6 -1 11 2 17 5 13 3 -3 4
-12 1 -19z m0 -65 c-3 -10 -5 -4 -5 12 0 17 2 24 5 18 2 -7 2 -21 0 -30z
m-708 -253 c10 -52 18 -96 16 -98 -6 -7 -64 105 -74 143 -12 44 -14 156 -4
195 7 25 13 1 62 -240z m110 184 c19 -105 95 -361 146 -485 25 -63 47 -120 48
-127 1 -9 -21 -21 -58 -32 -32 -11 -60 -18 -62 -16 -4 4 -50 327 -58 406 -3
36 -13 114 -21 173 -8 59 -14 117 -14 127 0 38 8 19 19 -46z m5281 -131 c52
-129 167 -344 238 -448 123 -180 134 -208 142 -355 11 -191 31 -262 220 -741
l30 -76 -45 -102 c-78 -180 -154 -301 -254 -406 -79 -82 -64 -72 91 64 112 98
206 196 257 267 14 19 28 31 32 27 4 -5 35 -96 69 -203 34 -107 69 -208 77
-224 11 -21 15 -56 14 -115 -3 -128 17 -314 34 -327 12 -9 11 -24 -5 -105 -31
-149 -23 -273 25 -392 14 -33 23 -62 21 -64 -2 -2 -48 12 -102 31 -104 37
-296 96 -313 96 -6 0 -48 24 -93 53 -125 81 -143 89 -200 85 l-50 -3 -74 190
c-112 287 -235 627 -304 845 -196 618 -243 747 -295 809 -49 58 -78 64 -292
69 -106 2 -193 6 -193 8 0 12 110 296 152 394 51 117 125 262 161 313 17 24
25 28 50 23 51 -10 97 -46 158 -123 80 -100 115 -207 106 -321 -4 -42 -9 -90
-13 -107 l-6 -30 22 25 c29 34 96 174 110 232 7 29 11 91 8 155 -5 137 -39
241 -94 291 -19 19 -34 35 -32 36 2 2 52 31 111 65 60 34 129 75 155 91 26 16
50 30 53 30 3 0 16 -26 29 -57z m-4683 -85 c-3 -8 -6 -5 -6 6 -1 11 2 17 5 13
3 -3 4 -12 1 -19z m-2569 -100 c75 -96 180 -199 268 -263 43 -32 113 -83 154
-114 134 -98 198 -159 211 -199 17 -55 24 -635 10 -834 -26 -356 -24 -345 -49
-371 -18 -19 -36 -25 -85 -29 -116 -10 -241 -96 -286 -199 -11 -25 -28 -76
-36 -113 -19 -82 -9 -176 29 -282 14 -37 23 -71 20 -76 -3 -4 -23 -8 -45 -8
-22 0 -56 -7 -77 -16 -105 -44 -693 -232 -1292 -413 -201 -61 -405 -124 -454
-140 -49 -17 -91 -30 -92 -28 -9 8 191 260 262 331 15 14 24 29 21 33 -4 3 -7
1 -7 -5 0 -7 -9 -12 -20 -12 -12 0 -20 7 -20 16 0 18 -23 44 -39 44 -6 0 -13
11 -17 25 -3 14 -12 25 -20 25 -36 0 -313 -162 -464 -271 -36 -26 -67 -46 -68
-44 -6 5 131 205 226 330 l84 110 -31 3 c-18 2 -31 9 -31 17 0 8 -16 16 -39
20 -47 8 -97 47 -85 66 12 19 -49 -26 -114 -85 -31 -28 -93 -82 -137 -120 -44
-38 -122 -110 -174 -160 -51 -50 -91 -86 -88 -80 8 15 -38 57 -64 59 -12 1
-25 -8 -34 -24 -26 -48 -15 -12 24 79 54 125 97 194 154 245 56 51 61 65 11
36 -37 -22 -80 -57 -217 -176 -89 -77 -89 -79 20 103 93 156 232 365 339 509
204 275 502 582 679 700 31 20 53 38 50 41 -8 8 -104 -60 -205 -145 -185 -157
-399 -390 -576 -627 -67 -88 -103 -130 -102 -115 2 18 -3 25 -19 27 -13 2 -23
10 -23 18 0 8 -9 14 -20 14 -13 0 -20 7 -20 20 0 13 -7 20 -18 20 -11 0 -27 9
-38 21 -29 32 -95 63 -104 49 -4 -7 -16 1 -32 22 -44 57 -92 99 -120 105 -17
3 -28 12 -28 22 0 39 -51 56 -69 24 -6 -10 -11 -13 -11 -7 0 13 133 145 185
182 78 56 89 91 14 43 -25 -15 -90 -45 -145 -65 -160 -59 -521 -271 -673 -394
-27 -22 -42 -30 -38 -20 4 11 2 15 -7 12 -7 -2 -23 5 -36 16 -19 17 -22 23
-11 30 21 12 -10 40 -44 40 -14 0 -24 3 -22 8 3 4 1 16 -3 27 -22 62 403 462
743 698 383 267 884 507 1161 556 33 6 61 11 63 11 2 0 3 3 3 8 0 4 -89 7
-198 8 -172 1 -213 4 -323 27 -322 68 -596 197 -769 365 l-65 63 70 -52 c136
-101 312 -169 550 -211 425 -77 1369 48 1880 249 148 58 324 148 425 217 52
36 96 66 97 66 0 0 23 -28 51 -62z m2559 -20 c-3 -8 -6 -5 -6 6 -1 11 2 17 5
13 3 -3 4 -12 1 -19z m-580 -368 c-12 -14 -44 -74 -71 -133 -27 -59 -50 -106
-52 -104 -2 2 3 41 11 88 26 153 45 348 39 406 -5 52 -1 44 45 -86 l50 -144
-22 -27z m505 35 c-2 -30 -7 -55 -12 -55 -9 0 -40 73 -40 95 0 10 10 15 28 15
27 0 27 -1 24 -55z m-247 -58 c28 -45 61 -99 74 -121 l24 -38 -49 28 c-27 16
-87 52 -133 81 -47 29 -89 53 -93 53 -4 0 -8 5 -8 10 0 9 111 67 130 69 3 0
28 -37 55 -82z m411 2 c184 -77 467 -301 672 -532 97 -110 276 -337 265 -337
-3 0 -86 44 -182 99 -97 54 -240 133 -318 175 -122 66 -334 188 -437 253 -20
12 -49 54 -88 128 -59 112 -65 138 -51 218 6 37 8 39 35 33 15 -3 63 -20 104
-37z m-451 -114 c77 -48 160 -100 185 -115 69 -42 422 -246 471 -273 93 -49
546 -303 935 -523 23 -13 44 -30 47 -38 6 -16 -21 -95 -112 -331 -79 -203
-158 -440 -217 -648 -57 -202 -116 -399 -205 -682 -39 -121 -88 -290 -110
-375 -70 -272 -112 -420 -119 -420 -4 0 -139 127 -299 283 -478 462 -822 774
-1101 997 -58 46 -121 99 -140 117 -19 18 -89 77 -155 130 -99 81 -125 108
-147 153 -46 93 -32 186 44 305 90 141 162 292 361 761 31 72 100 223 153 335
53 112 119 254 146 314 64 140 63 139 96 116 15 -10 90 -58 167 -106z m4449
-355 c71 -11 105 -40 146 -120 29 -58 124 -342 236 -700 102 -331 237 -704
348 -962 25 -59 46 -112 46 -117 0 -5 -57 -57 -127 -115 -71 -58 -177 -146
-238 -197 -216 -180 -566 -432 -965 -694 -204 -134 -443 -275 -467 -275 -12 0
-19 35 -28 145 -37 422 -98 785 -226 1345 -112 489 -223 867 -270 917 -14 14
-19 27 -13 32 16 15 432 167 634 231 239 77 263 85 475 176 197 84 323 143
331 155 9 16 -26 10 -67 -12 -52 -26 -272 -109 -277 -104 -2 2 18 71 44 154
l47 151 156 0 c86 0 183 -4 215 -10z m-2792 -809 c13 -5 43 -32 67 -61 44 -52
97 -170 298 -660 74 -182 234 -624 247 -688 7 -31 6 -32 -24 -32 -17 0 -48 -9
-68 -19 -33 -17 -41 -17 -67 -6 -84 37 -479 344 -645 500 -36 33 -81 72 -100
85 -19 13 -36 25 -38 26 -11 8 132 475 226 737 48 133 52 138 104 118z m625
-563 c56 -42 142 -100 190 -128 48 -29 89 -53 91 -55 1 -1 -15 -51 -36 -111
-22 -60 -72 -215 -112 -344 -40 -129 -77 -239 -81 -244 -13 -15 -39 14 -39 44
0 28 -125 406 -180 546 -18 43 -92 223 -166 400 -74 177 -134 324 -134 326 0
2 82 -77 183 -177 100 -99 228 -215 284 -257z m-8177 302 c0 -5 -5 -10 -11
-10 -5 0 -7 5 -4 10 3 6 8 10 11 10 2 0 4 -4 4 -10z m9021 -553 c11 -53 19
-104 16 -111 -5 -14 -166 -132 -192 -143 -8 -2 15 62 49 144 35 81 69 165 77
185 7 21 16 35 21 30 4 -4 17 -51 29 -105z m-1751 -253 c161 -141 391 -308
555 -401 60 -34 118 -68 128 -75 17 -12 1 -37 -219 -331 -206 -276 -240 -317
-258 -311 -51 16 -495 209 -528 231 -21 13 -38 29 -38 36 0 24 81 313 130 462
26 83 67 213 90 290 51 173 48 165 57 165 5 0 42 -30 83 -66z m1869 -299 c40
-211 84 -485 94 -581 6 -51 5 -52 -23 -58 -16 -3 -58 -19 -92 -35 -74 -34
-177 -63 -303 -86 -49 -9 -134 -27 -189 -41 -54 -14 -117 -24 -140 -22 -40 3
-41 3 -68 73 -15 39 -25 76 -23 83 2 6 0 12 -5 12 -6 0 -10 5 -10 10 0 10 -50
130 -121 294 -22 49 -38 91 -36 93 7 6 266 160 310 183 l44 23 33 -31 c18 -17
36 -29 41 -26 5 3 24 38 43 79 38 82 15 65 286 214 89 49 106 56 112 42 4 -9
26 -110 47 -226z m-687 111 c21 -23 38 -43 37 -46 0 -3 -34 -30 -76 -60 -42
-30 -92 -66 -110 -79 -18 -13 -35 -22 -38 -19 -5 5 8 43 40 123 4 11 9 25 10
31 2 6 13 43 26 82 l23 71 25 -31 c14 -17 43 -50 63 -72z m2273 -391 c51 -52
43 -121 -23 -192 -41 -45 -174 -134 -203 -136 -11 -1 -19 -5 -19 -9 0 -13 -60
-39 -73 -32 -7 4 -9 4 -5 -1 10 -11 -51 -48 -68 -41 -8 3 -13 0 -11 -6 1 -7
-7 -13 -18 -15 -11 -1 -14 0 -7 3 13 6 17 25 5 23 -5 -1 -36 -1 -70 0 l-63 1
0 40 c0 33 3 40 20 40 17 0 20 7 20 40 0 33 3 40 20 40 13 0 20 7 20 20 0 11
7 23 15 26 8 4 15 15 15 26 0 14 5 18 16 14 8 -3 13 -2 9 3 -3 5 8 19 25 31
16 12 30 19 30 15 0 -3 15 8 33 24 30 29 66 46 39 19 -7 -7 -12 -16 -12 -22 0
-5 6 -1 14 9 8 11 12 23 10 27 -3 4 4 12 15 17 11 6 25 17 33 24 29 28 85 47
140 47 52 0 60 -3 93 -35z m-2472 -355 c36 -96 68 -182 72 -191 5 -13 -3 -17
-37 -22 -23 -3 -44 -5 -45 -3 -6 6 -63 362 -63 393 0 16 12 -13 73 -177z
m1997 166 c0 -2 -8 -10 -17 -17 -16 -13 -17 -12 -4 4 13 16 21 21 21 13z
m-2197 -219 c3 -67 8 -129 12 -138 5 -12 -9 -20 -70 -36 -72 -19 -75 -19 -75
-2 0 31 30 242 41 284 17 69 16 68 52 41 l34 -26 6 -123z m2117 150 c0 -8 -7
-14 -15 -14 -25 0 -17 17 13 26 1 1 2 -5 2 -12z m-80 -51 c0 -2 -7 -7 -16 -10
-8 -3 -12 -2 -9 4 6 10 25 14 25 6z m-40 -29 c0 -7 -10 -13 -21 -14 -21 -2
-21 -1 -3 12 24 18 24 18 24 2z m-2346 -201 c-7 -60 -25 -81 -64 -74 -17 3
-14 11 23 70 23 37 43 65 45 64 1 -2 0 -29 -4 -60z m2632 -252 c-9 -9 -20 -14
-23 -10 -4 3 2 13 13 20 25 18 31 12 10 -10z m-203 -149 c-3 -9 -8 -14 -10
-11 -3 3 -2 9 2 15 9 16 15 13 8 -4z"/>
<path d="M14993 12833 c-3 -10 -8 -22 -11 -27 -3 -5 0 -6 5 -3 11 7 25 47 17
47 -3 0 -7 -8 -11 -17z"/>
<path d="M5930 4020 c0 -18 107 -144 126 -148 8 -2 14 0 14 5 -1 16 -139 158
-140 143z"/>
<path d="M6220 4003 c1 -18 56 -117 68 -121 19 -6 14 19 -16 72 -24 44 -53 71
-52 49z"/>
<path d="M6110 3963 c0 -3 12 -26 26 -51 17 -29 29 -41 36 -34 6 6 1 24 -16
51 -23 36 -46 53 -46 34z"/>
<path d="M6032 3952 c2 -5 22 -25 46 -46 50 -45 58 -26 9 22 -30 29 -63 44
-55 24z"/>
<path d="M8485 9420 c3 -5 8 -10 11 -10 2 0 4 5 4 10 0 6 -5 10 -11 10 -5 0
-7 -4 -4 -10z"/>
<path d="M9907 9300 c-3 -11 -1 -20 4 -20 5 0 9 9 9 20 0 11 -2 20 -4 20 -2 0
-6 -9 -9 -20z"/>
<path d="M9849 9268 l-12 -23 24 20 c13 11 26 21 28 22 2 2 -3 3 -12 3 -9 0
-22 -10 -28 -22z"/>
<path d="M9168 9243 c6 -2 18 -2 25 0 6 3 1 5 -13 5 -14 0 -19 -2 -12 -5z"/>
<path d="M9108 9233 c6 -2 18 -2 25 0 6 3 1 5 -13 5 -14 0 -19 -2 -12 -5z"/>
<path d="M9180 9150 c8 -5 22 -9 30 -9 10 0 8 3 -5 9 -27 12 -43 12 -25 0z"/>
<path d="M9275 9120 c-3 -5 -1 -10 4 -10 6 0 11 5 11 10 0 6 -2 10 -4 10 -3 0
-8 -4 -11 -10z"/>
<path d="M11728 6941 c-54 -82 -198 -232 -295 -308 -46 -36 -82 -68 -79 -70 7
-8 124 77 190 138 93 85 230 258 224 282 -2 7 -20 -12 -40 -42z"/>
<path d="M11018 6402 c-150 -92 -275 -196 -267 -221 2 -6 54 26 114 72 61 45
143 106 183 135 39 29 72 58 72 63 0 13 3 15 -102 -49z"/>
<path d="M10447 6423 c-17 -16 -3 -35 38 -53 31 -13 56 -35 82 -71 20 -29 39
-47 41 -41 5 16 -25 60 -82 120 -48 50 -65 60 -79 45z"/>
<path d="M9070 6005 c-11 -13 -6 -21 29 -53 67 -60 283 -179 486 -267 61 -26
173 -77 250 -113 256 -118 515 -219 635 -247 63 -15 196 -47 295 -72 99 -25
198 -49 220 -55 57 -13 443 -22 485 -11 25 7 35 15 35 29 0 16 -6 19 -35 16
-19 -1 -45 -9 -57 -17 -17 -11 -55 -15 -150 -15 -172 0 -270 13 -443 60 -80
21 -172 44 -205 50 -205 39 -433 122 -771 278 -82 38 -232 107 -333 152 -186
85 -254 127 -361 225 -33 30 -62 55 -64 55 -2 0 -9 -7 -16 -15z"/>
<path d="M9995 5207 c11 -9 26 -17 33 -17 7 0 11 -4 8 -8 -6 -11 82 -70 130
-87 43 -16 189 -20 164 -6 -8 5 -82 34 -165 64 -82 30 -159 58 -170 62 l-20 8
20 -16z"/>
<path d="M12917 8576 c-4 -11 -5 -21 -2 -24 3 -3 5 1 5 9 0 11 2 12 9 1 7 -11
9 -10 14 3 4 9 3 14 -2 10 -5 -3 -11 0 -13 7 -3 7 -7 5 -11 -6z"/>
<path d="M12846 8394 c-4 -15 -5 -29 -1 -32 3 -3 5 2 5 11 0 8 7 23 16 31 13
14 13 16 1 16 -8 0 -18 -12 -21 -26z"/>
<path d="M11705 8189 c-4 -6 -5 -12 -2 -15 2 -3 7 2 10 11 7 17 1 20 -8 4z"/>
<path d="M13940 8222 c0 -12 19 -26 26 -19 2 2 -2 10 -11 17 -9 8 -15 8 -15 2z"/>
<path d="M10135 1089 c-4 -6 -5 -12 -2 -15 2 -3 7 2 10 11 7 17 1 20 -8 4z"/>
<path d="M13850 18791 c0 -23 109 -103 218 -159 161 -84 240 -112 308 -112 48
0 59 4 85 29 46 47 33 125 -37 216 l-26 35 -274 0 c-157 0 -274 -4 -274 -9z"/>
<path d="M17073 18768 c45 -61 76 -123 87 -176 7 -28 16 -54 20 -57 5 -3 18
12 30 35 11 22 24 40 28 40 5 0 132 -25 283 -55 308 -62 359 -71 721 -120 142
-19 318 -46 392 -60 167 -31 166 -31 166 -1 0 21 -6 25 -62 35 -117 21 -402
60 -623 86 -121 14 -299 39 -395 55 -355 59 -505 83 -523 82 -12 -1 -24 12
-33 34 -29 69 -75 134 -95 134 -19 0 -19 -2 4 -32z"/>
<path d="M12076 18711 c-6 -9 54 -214 104 -354 17 -49 29 -94 27 -100 -2 -6
-22 7 -45 28 -24 21 -44 36 -46 34 -7 -8 184 -386 213 -420 36 -43 77 -57 343
-120 214 -50 446 -126 536 -175 84 -47 239 -196 299 -287 46 -70 96 -171 143
-290 15 -38 31 -67 36 -66 20 6 34 75 28 134 -10 97 -53 324 -78 410 -57 192
-147 369 -229 448 -99 95 -321 193 -584 257 -70 17 -147 42 -169 55 -64 37
-141 129 -190 227 -60 119 -78 115 -54 -12 6 -29 8 -55 5 -58 -9 -9 -119 70
-182 131 -34 33 -79 84 -99 113 -37 53 -48 62 -58 45z"/>
<path d="M12950 18400 c0 -5 19 -14 43 -21 106 -28 268 -84 332 -115 39 -19
106 -61 149 -94 44 -33 83 -60 88 -60 17 0 7 22 -24 52 -94 87 -244 161 -447
219 -111 31 -141 35 -141 19z"/>
<path d="M13766 17921 c-3 -4 6 -57 19 -117 14 -60 25 -121 25 -136 0 -32 17
-46 27 -22 7 19 -21 204 -39 254 -10 30 -22 38 -32 21z"/>
<path d="M16083 17740 c-33 -20 -37 -29 -33 -100 7 -172 186 -360 342 -360 52
0 103 22 124 54 40 62 -9 192 -111 292 -123 121 -243 163 -322 114z"/>
<path d="M15525 16637 c-74 -39 -145 -96 -145 -114 0 -19 5 -17 84 31 39 24
89 52 111 63 42 19 60 53 28 53 -10 0 -45 -15 -78 -33z"/>
<path d="M15836 16621 c-9 -14 15 -28 61 -36 97 -16 220 -91 366 -223 37 -34
72 -62 77 -62 46 0 -75 123 -227 231 -92 66 -259 120 -277 90z"/>
<path d="M14060 16176 c0 -9 15 -39 33 -68 27 -45 32 -50 35 -30 4 25 -36 103
-55 110 -7 2 -13 -3 -13 -12z"/>
<path d="M13452 16018 c-51 -206 -56 -495 -9 -621 33 -90 68 -138 144 -198 75
-59 99 -69 161 -69 102 0 200 42 327 139 225 172 355 279 355 291 0 5 -17 17
-37 25 -20 9 -63 40 -94 71 -79 74 -147 106 -216 97 -64 -7 -69 -4 -135 94
-58 87 -94 113 -218 157 -51 18 -97 41 -102 50 -5 9 -13 14 -18 11 -5 -3 -32
4 -60 15 -28 11 -57 20 -64 20 -9 0 -21 -30 -34 -82z m226 -36 c2 -7 -3 -12
-12 -12 -9 0 -16 7 -16 16 0 17 22 14 28 -4z m597 -342 c19 -21 21 -19 -30
-35 -11 -3 -15 4 -15 25 0 35 19 39 45 10z m-722 -298 c52 -54 154 -114 235
-138 l77 -22 -40 -11 c-81 -22 -138 -10 -217 47 -57 40 -109 109 -137 180 -30
75 -26 80 15 25 20 -26 50 -63 67 -81z"/>
<path d="M14358 16003 c-20 -5 -23 -18 -8 -28 18 -11 111 6 107 19 -4 11 -69
18 -99 9z"/>
<path d="M11985 309 c-4 -6 -5 -12 -2 -15 2 -3 7 2 10 11 7 17 1 20 -8 4z"/>
</g>
</svg>
