<?xml version="1.0" standalone="no"?>
<!DOCTYPE svg PUBLIC "-//W3C//DTD SVG 20010904//EN"
 "http://www.w3.org/TR/2001/REC-SVG-20010904/DTD/svg10.dtd">
<svg version="1.0" xmlns="http://www.w3.org/2000/svg"
 width="500.000000pt" height="300.000000pt" viewBox="0 0 500.000000 500.000000"
 preserveAspectRatio="xMidYMid meet">
<metadata>
Created by potrace 1.16, written by Peter Selinger 2001-2019
</metadata>
<g transform="translate(0.000000,500.000000) scale(0.100000,-0.100000)"
fill="white" stroke="none">
<path d="M922 3173 c-22 -65 -74 -216 -116 -335 -51 -149 -71 -218 -62 -218 8
0 44 90 96 243 46 133 87 253 92 267 9 22 18 0 73 -160 35 -102 76 -221 91
-265 l29 -80 83 -3 c49 -2 83 1 80 7 -1 5 -57 156 -123 335 l-120 326 -42 0
-41 0 -40 -117z"/>
<path d="M1940 3280 c0 -5 26 -10 58 -11 74 0 120 -17 146 -52 20 -27 21 -44
26 -310 l5 -282 83 -3 82 -3 0 326 0 326 298 -3 c278 -3 300 -4 337 -24 70
-36 104 -135 105 -301 0 -48 3 -63 14 -63 12 0 14 25 10 153 -3 83 -7 176 -10
205 l-5 52 -575 0 c-376 0 -574 -3 -574 -10z"/>
<path d="M3350 3280 c0 -5 20 -10 44 -10 71 0 106 -11 140 -44 17 -18 102
-161 190 -319 l158 -287 89 0 c49 0 89 3 89 7 0 3 -61 116 -136 250 -143 255
-171 321 -153 354 13 26 49 39 105 39 24 0 44 5 44 10 0 6 -102 10 -285 10
-183 0 -285 -4 -285 -10z"/>
<path d="M4250 3280 c0 -6 33 -10 79 -10 95 0 128 -11 137 -44 9 -36 -28 -110
-185 -375 -73 -122 -130 -225 -127 -229 11 -11 32 20 186 283 84 143 165 275
179 294 34 45 92 71 164 71 31 0 57 5 57 10 0 6 -88 10 -245 10 -157 0 -245
-4 -245 -10z"/>
<path d="M560 2125 c-5 -14 -41 -115 -79 -223 -38 -109 -78 -217 -90 -240 -26
-51 -63 -71 -146 -79 -142 -13 -51 -23 210 -23 177 0 275 4 275 10 0 6 -24 10
-52 10 -96 1 -179 17 -204 41 -39 36 -32 83 46 309 38 113 70 208 70 213 0 18
-21 5 -30 -18z"/>
<path d="M1300 2142 c0 -5 29 -87 64 -183 121 -331 117 -362 -57 -375 -173
-14 -81 -24 208 -24 277 0 360 8 248 25 -94 13 -100 23 -224 363 l-74 202 -82
0 c-46 0 -83 -4 -83 -8z"/>
<path d="M2170 1920 c0 -256 -6 -287 -58 -314 -17 -9 -62 -19 -101 -22 -181
-17 -23 -24 543 -24 l615 0 5 43 c12 98 17 367 7 367 -14 0 -19 -27 -25 -137
-7 -137 -42 -202 -126 -233 -25 -10 -126 -15 -362 -18 l-328 -4 0 286 0 286
-85 0 -85 0 0 -230z"/>
<path d="M3827 2113 c-13 -21 -72 -123 -133 -226 -158 -272 -177 -292 -303
-303 -147 -14 -62 -24 199 -24 273 0 363 13 160 22 -120 6 -150 19 -150 64 0
28 51 127 175 335 52 88 95 162 95 165 0 16 -23 -2 -43 -33z"/>
<path d="M4158 2118 c48 -81 186 -335 214 -394 47 -101 31 -129 -82 -141 -134
-14 -44 -23 225 -23 157 0 285 4 285 8 0 5 -32 13 -71 19 -54 9 -78 18 -99 38
-15 15 -90 139 -166 276 l-139 249 -93 0 -94 0 20 -32z"/>
</g>
</svg>
